<svg width="40" height="40" viewBox="0 0 24 24" fill="none" xmlns="http://www.w3.org/2000/svg">
  <path d="M21.1504 18.1498L19.0801 16.0798C18.7763 15.776 18.3926 15.6053 17.9934 15.6053C17.5943 15.6053 17.2106 15.776 16.9067 16.0798L15.4199 17.5667C15.2584 17.7282 15.0293 17.8187 14.7902 17.8187C14.551 17.8187 14.3219 17.7282 14.1604 17.5667C13.9707 17.3773 13.7944 17.173 13.6326 16.9554C13.1528 16.3039 12.7717 15.5899 12.4999 14.8335C12.0976 13.6264 11.9941 12.3435 12.1967 11.0905C12.2533 10.7444 12.4452 10.4296 12.7332 10.2106C12.8309 10.1353 12.945 10.0808 13.0672 10.0505C13.1893 10.0202 13.3167 10.0147 13.4416 10.0343L13.4459 10.0352L13.9004 10.1284C14.0204 10.147 14.1362 10.1859 14.2424 10.2434C14.3487 10.3009 14.4435 10.3762 14.5226 10.4658C14.5226 10.4658 15.5994 11.7142 16.5899 11.7142H17.5804C17.5804 11.7142 18.5709 10.7234 18.5709 9.73291V8.74237C18.5709 8.24709 18.5709 7.75181 18.0756 7.25653L16.0899 5.27079C15.7981 4.9781 15.4176 4.80762 15.0206 4.78831C14.6235 4.76901 14.2301 4.90211 13.9126 5.16635C13.2343 5.73438 12.0498 6.77915 12.0498 8.2432C12.0498 9.24845 11.5581 13.2158 13.5439 16.1942C15.5296 19.1727 19.4963 20.1779 20.495 20.1779C21.9591 20.1779 23.0049 18.9933 23.5729 18.315C23.8371 17.9976 23.9702 17.6042 23.9509 17.2072C23.9316 16.8101 23.7611 16.4297 23.4684 16.1379L21.1504 18.1498Z" stroke="#2d7af2" stroke-width="1.5" stroke-linecap="round" stroke-linejoin="round"/>
  <path d="M7.25 9C8.5 9.5 9.5 10.5 10 11.75" stroke="#2d7af2" stroke-width="1.5" stroke-linecap="round" stroke-linejoin="round"/>
  <path d="M5 7C7 8 9 10 10 12" stroke="#2d7af2" stroke-width="1.5" stroke-linecap="round" stroke-linejoin="round"/>
  <path d="M3 4.5C5.5 6 9 9.5 10.5 13" stroke="#2d7af2" stroke-width="1.5" stroke-linecap="round" stroke-linejoin="round"/>
</svg>