<svg width="40" height="40" viewBox="0 0 24 24" fill="none" xmlns="http://www.w3.org/2000/svg">
  <path d="M19.3259 5.77772C20.8286 7.28103 21.75 9.3044 21.75 11.5397C21.75 15.7603 18.1717 19.0867 13.9605 19.0867C12.1042 19.0867 10.3709 18.4883 9.01938 17.4551L3.89964 19.4839C3.38038 19.6881 2.81607 19.2153 2.95769 18.6463L4.31062 13.9169C3.60574 12.641 3.25 11.1383 3.25 9.54453C3.25 5.32395 6.82823 1.99756 11.0395 1.99756C13.2743 1.99756 15.2971 2.91929 16.8 4.42306" stroke="#2d7af2" stroke-width="1.5" stroke-linecap="round"/>
  <path d="M8 10.2C8 10.2 9.5 12 12 12C14.5 12 16 10.2 16 10.2" stroke="#2d7af2" stroke-width="1.5" stroke-linecap="round"/>
</svg>